<svg xmlns="http://www.w3.org/2000/svg" viewBox="0 0 128 128">
  <rect width="128" height="128" rx="24" fill="#0a3f2a"/>
  <circle cx="64" cy="58" r="42" fill="none" stroke="#f7efdf" stroke-width="8"/>
  <circle cx="82" cy="35" r="8" fill="#d9a83b"/>
  <path d="M24 80c18-12 40-14 64-4 11 5 20 6 29 4-9 24-31 41-57 41-8 0-16-1-22-4L15 126l7-28a61 61 0 0 1-8-17z" fill="#f7efdf"/>
  <path d="M27 62c21-16 46-16 70 0" fill="none" stroke="#f7efdf" stroke-width="7" stroke-linecap="round"/>
  <path d="M58 84c12-5 28-13 41-22 9-6 17-5 25 0" fill="none" stroke="#f7efdf" stroke-width="7" stroke-linecap="round"/>
  <path d="M40 57l18-13 18 13v21H40z" fill="#f7efdf"/>
  <path d="M47 76V64h8v12zm15 0V65h8v11z" fill="#0a3f2a"/>
</svg>
