<svg xmlns="http://www.w3.org/2000/svg" viewBox="0 0 260 260" role="img" aria-labelledby="title desc">
  <title id="title">Finca Limpia</title>
  <desc id="desc">Emblema rural con finca, camino, casa y sol.</desc>
  <defs>
    <style>
      .cream{fill:#f7efdf}.gold{fill:#d9a83b}.none{fill:none;stroke:#f7efdf;stroke-width:12;stroke-linecap:round;stroke-linejoin:round}
    </style>
  </defs>
  <path class="none" d="M128 20c58 0 105 47 105 105 0 20-6 39-16 55-19 29-52 49-89 49-11 0-22-2-32-5L37 244l15-62a104 104 0 0 1-29-72C23 60 70 20 128 20z"/>
  <path class="cream" d="M28 159c31-18 67-20 104-7 25 9 45 8 67 0 7-2 16-4 25-5-10 47-50 82-98 82-11 0-22-2-31-5l-58 20 15-62a102 102 0 0 1-24-23z"/>
  <path fill="#0a3f2a" d="M74 214c26-3 54-13 62-28 8-16-32-29-61-22-20 4-32 11-47 0a104 104 0 0 0 24 18L37 244z" opacity=".28"/>
  <path class="none" d="M31 127c33-24 72-27 112-5 24 13 45 18 75 11"/>
  <path class="none" d="M133 151c21-5 38-18 55-28 14-8 31-7 45 2"/>
  <path fill="#0a3f2a" d="M127 223c23-3 52-16 52-34 0-14-22-27-52-23-25 3-50 14-73 12l-17 66 58-20c10 3 21 5 32 5z" opacity=".18"/>
  <path fill="#0a3f2a" d="M109 221c34-3 70-20 71-39 1-16-29-26-63-16-24 7-50 18-76 8l-4 70 58-20c5 1 9 2 14 3z" opacity=".2"/>
  <path fill="#0a3f2a" d="M125 229c17-2 50-13 55-33 4-18-28-29-66-22-25 5-50 18-76 10l-1 60 58-20c9 3 19 5 30 5z" opacity=".18"/>
  <path fill="#0a3f2a" d="M132 229c29-5 55-22 59-41 4-19-29-32-69-25-29 5-61 21-86 12l1 69 58-20c11 4 23 6 37 5z" opacity=".08"/>
  <path fill="#0a3f2a" d="M98 226c42-10 69-27 70-43 1-16-32-17-70-4-19 7-40 13-59 8l-2 57 58-20z" opacity=".16"/>
  <path class="cream" d="M97 229c28-5 61-18 69-36 9-19-21-29-58-18-27 8-54 22-81 11l10 58 58-20z"/>
  <path fill="#0a3f2a" d="M103 229c33-8 73-25 75-43 1-13-25-21-57-13-29 8-57 23-88 14l4 57 58-20z" opacity=".05"/>
  <path fill="#0a3f2a" d="M117 231c23-5 48-17 51-31 2-12-20-18-48-10-24 7-48 19-75 15l-8 39 58-20c7 2 14 4 22 7z" opacity=".12"/>
  <path class="cream" d="M112 228c18-4 44-16 50-31 5-13-17-21-48-14-29 7-58 20-83 11l6 50 58-20c5 2 11 3 17 4z"/>
  <path fill="#0a3f2a" d="M86 225c30-10 64-28 64-43 0-10-27-9-61 8-18 9-37 15-58 10l6 44 58-20z" opacity=".2"/>
  <path class="cream" d="M86 224c33-9 69-28 67-43-2-14-42-2-78 14-15 7-31 10-47 6l9 43 58-20z"/>
  <path fill="#0a3f2a" d="M86 224c20-8 45-23 52-35 5-9-5-10-25-4-29 10-52 22-78 17l2 42 58-20z" opacity=".22"/>
  <path class="cream" d="M135 218c-3-29 28-39 54-52-27 22-37 39-54 52z"/>
  <path fill="#0a3f2a" d="M144 215c-16-18 9-32 46-49-23 20-30 35-46 49z"/>
  <path class="cream" d="M73 108l36-25 35 25v43H73z"/>
  <path fill="#0a3f2a" d="M86 145v-29h14v29zm29 0v-24h15v24z"/>
  <path class="cream" d="M50 72c0-18 11-30 11-30s11 12 11 30v74H50z"/>
  <circle class="gold" cx="166" cy="71" r="18"/>
</svg>
