<svg xmlns="http://www.w3.org/2000/svg" viewBox="0 0 64 64" role="img" aria-label="Aula de Inglés Nava"><rect width="64" height="64" rx="16" fill="#fbf8f3"/><path d="M12 18c0-5.5 4.5-10 10-10h20c5.5 0 10 4.5 10 10v18c0 5.5-4.5 10-10 10H31L19 56v-10c-4.2-1.2-7-5.1-7-9.6V18z" fill="#102849"/><circle cx="43" cy="20" r="4" fill="#e7bd3f"/><path d="M18 37c7-10 13-12 20-3 3-4 7-5 12-1v6H18z" fill="#fbf8f3"/><path d="M20 39c8-8 15-7 23 0" fill="none" stroke="#a32138" stroke-width="3" stroke-linecap="round"/></svg>